<svg width="56" height="56" viewBox="0 0 56 56" fill="none" xmlns="http://www.w3.org/2000/svg">
<rect width="56" height="56" rx="16" fill="#1E2235"/>
<path d="M13.4541 14.0123C13.3086 14.0104 13.1645 14.0404 13.0318 14.1002C12.8992 14.1599 12.7812 14.248 12.6862 14.3582C12.5912 14.4684 12.5215 14.5981 12.482 14.7381C12.4424 14.8781 12.434 15.0251 12.4573 15.1687L16.6888 40.8563C16.7415 41.1707 16.9033 41.4564 17.1458 41.6633C17.3882 41.8702 17.6958 41.9851 18.0146 41.9877H38.3145C38.5534 41.9908 38.7854 41.9079 38.9684 41.7542C39.1513 41.6005 39.2729 41.3863 39.3111 41.1504L43.5427 15.1737C43.566 15.0301 43.5576 14.8831 43.518 14.7431C43.4784 14.6031 43.4087 14.4735 43.3137 14.3633C43.2187 14.2531 43.1007 14.1651 42.9681 14.1053C42.8354 14.0456 42.6913 14.0156 42.5458 14.0175L13.4541 14.0123ZM31.272 32.5778H24.7927L23.0384 23.4122H32.842L31.272 32.5778Z" fill="#2684FF"/>
<path d="M42.1713 23.3994H32.8239L31.2551 32.5577H24.7811L17.1368 41.6312C17.3791 41.8407 17.688 41.9572 18.0083 41.9599H38.297C38.5357 41.9629 38.7676 41.8802 38.9504 41.7266C39.1333 41.573 39.2548 41.3589 39.293 41.1233L42.1713 23.3994Z" fill="url(#paint0_linear_1_1459)"/>
<defs>
<linearGradient id="paint0_linear_1_1459" x1="44.3325" y1="25.9641" x2="33.5348" y2="41.2956" gradientUnits="userSpaceOnUse">
<stop offset="0.18" stop-color="#0052CC"/>
<stop offset="1" stop-color="#2684FF"/>
</linearGradient>
</defs>
</svg>
