<svg width="56" height="56" viewBox="0 0 56 56" fill="none" xmlns="http://www.w3.org/2000/svg">
<rect width="56" height="56" rx="16" fill="#1E2235"/>
<path d="M39.013 37.4645C38.7887 37.4646 38.5717 37.3847 38.4011 37.2391C38.2304 37.0936 38.1173 36.8919 38.0821 36.6704C38.0468 36.4489 38.0917 36.2221 38.2087 36.0308C38.3258 35.8394 38.5072 35.6961 38.7204 35.6265C40.5129 35.0399 41.6708 33.4689 41.6708 31.624C41.6708 29.2875 39.7701 27.3866 37.4337 27.3866C37.2714 27.3866 37.0967 27.3994 36.8842 27.4269L35.963 27.5464L35.8306 26.6264C35.2644 22.6821 31.8285 19.7076 27.8381 19.7076C24.5393 19.7076 21.6024 21.6824 20.357 24.7391L20.1224 25.3142L19.5019 25.3255C16.6498 25.3779 14.3295 27.74 14.3295 30.5907C14.3295 32.6717 15.5377 34.5695 17.4074 35.4253C17.6346 35.5293 17.8112 35.7193 17.8984 35.9535C17.9855 36.1877 17.976 36.4469 17.8721 36.6742C17.7681 36.9014 17.5781 37.078 17.3439 37.1652C17.1096 37.2523 16.8504 37.2428 16.6232 37.1388C14.0846 35.9772 12.4444 33.4068 12.4444 30.5908C12.4444 26.9261 15.268 23.8563 18.8544 23.4792C20.507 20.0238 23.9704 17.8233 27.8378 17.8233C32.4668 17.8233 36.4907 21.0687 37.5341 25.5033C40.8635 25.5572 43.5556 28.2823 43.5556 31.6243C43.5556 34.2578 41.8478 36.5858 39.3066 37.4175C39.2094 37.4492 39.1103 37.4645 39.013 37.4645Z" fill="#0071CE"/>
<path d="M24.5993 37.8721L24.5988 37.8719L24.5979 37.8716H24.5977L24.5975 37.8714L24.5972 37.8711C24.5972 37.8711 24.597 37.8711 24.597 37.8709H24.5967L24.5965 37.8707C24.5967 37.8704 24.5962 37.8704 24.5962 37.8704L24.596 37.8702H24.5958L24.5955 37.8699L24.5953 37.8697L24.5945 37.8694L24.5943 37.8692L24.5941 37.869L24.5938 37.8687L24.5931 37.8685C24.5928 37.8687 24.5928 37.8682 24.5926 37.8682L24.5924 37.868L24.5919 37.8677L24.5916 37.8675C24.5914 37.8673 24.5909 37.8673 24.5907 37.8673L24.5897 37.867L24.5892 37.8668H24.589C24.5887 37.8665 24.5885 37.8665 24.5881 37.8665C24.5879 37.8663 24.5874 37.8663 24.5874 37.8663H24.5871L24.5866 37.866C24.5864 37.866 24.5864 37.8658 24.5864 37.8658H24.5862C24.5713 37.8605 24.5557 37.8574 24.54 37.8567H24.5385H24.5378L24.5375 37.8564H24.535H24.5352H24.5333C24.1261 37.8564 23.7928 37.5249 23.7904 37.1186V28.839H24.4249C24.5215 28.8431 24.5874 28.7687 24.5874 28.6795C24.5874 28.6128 24.5465 28.5558 24.4886 28.532L21.4441 26.4307C21.4174 26.4123 21.3858 26.4025 21.3535 26.4025C21.3211 26.4025 21.2895 26.4123 21.2629 26.4307L18.1945 28.5484C18.1667 28.5678 18.1458 28.5956 18.1348 28.6276C18.1238 28.6597 18.1233 28.6945 18.1334 28.7269C18.1435 28.7593 18.1636 28.7876 18.1909 28.8078C18.2181 28.828 18.2511 28.8389 18.2851 28.8391H18.9194L18.92 37.1208C18.9232 37.6934 19.3831 38.1606 19.9682 38.1755C19.9749 38.1762 19.9812 38.1767 19.9879 38.1767H24.5357C24.5775 38.1759 24.6154 38.1592 24.6435 38.1323L24.6438 38.1321L24.645 38.1309C24.6452 38.1306 24.6455 38.1306 24.6457 38.1301L24.6459 38.1299L24.6462 38.1296L24.6464 38.1294L24.6467 38.1292L24.6469 38.1289L24.6472 38.1287C24.6477 38.1284 24.6474 38.1284 24.6477 38.1282L24.6479 38.1279L24.6481 38.1277L24.6484 38.1274C24.676 38.0989 24.6932 38.0602 24.6933 38.0175V38.015C24.6927 37.9848 24.6835 37.9553 24.6669 37.93C24.6503 37.9047 24.6268 37.8847 24.5993 37.8721Z" fill="#DC8327"/>
<path d="M31.1749 37.8721L31.1744 37.8719L31.1737 37.8717H31.1734L31.1731 37.8714L31.1729 37.8712H31.1726L31.1724 37.8709L31.1721 37.8707C31.1724 37.8704 31.1719 37.8704 31.1717 37.8704L31.1714 37.8702H31.1712C31.1709 37.8702 31.1709 37.87 31.1709 37.87C31.1704 37.8702 31.1704 37.8697 31.1704 37.8697L31.1699 37.8695L31.1697 37.8692H31.1695L31.1692 37.869L31.169 37.8687L31.1685 37.8685C31.1682 37.8687 31.1682 37.8683 31.1678 37.8683L31.1675 37.868L31.1673 37.8678L31.1668 37.8675C31.1665 37.8673 31.1661 37.8673 31.1658 37.8673L31.1648 37.867L31.1644 37.8668L31.1639 37.8666L31.1634 37.8663L31.1628 37.8661C31.162 37.8661 31.1625 37.8661 31.1623 37.8658L31.1618 37.8656L31.1616 37.8653H31.1613C31.1465 37.86 31.1309 37.857 31.1151 37.8562H31.1132L31.113 37.856H31.108C30.7009 37.856 30.3677 37.5244 30.3653 37.1182V30.693H30.9996C31.0372 30.6947 31.0742 30.6831 31.104 30.6602C31.1339 30.6373 31.1547 30.6045 31.1627 30.5677C31.1707 30.531 31.1654 30.4925 31.1478 30.4593C31.1302 30.426 31.1013 30.4001 31.0664 30.386L28.0218 28.2848C27.9951 28.2664 27.9635 28.2566 27.9311 28.2566C27.8987 28.2566 27.8671 28.2664 27.8404 28.2848L24.7733 30.4023C24.7455 30.4217 24.7246 30.4495 24.7136 30.4815C24.7026 30.5136 24.7021 30.5484 24.7122 30.5808C24.7223 30.6132 24.7424 30.6415 24.7697 30.6617C24.7969 30.6819 24.8299 30.6928 24.8639 30.693H25.4954L25.4959 37.1206C25.4986 37.6934 25.9593 38.1609 26.5447 38.1755C26.551 38.1762 26.5574 38.1764 26.5638 38.1764H31.1117C31.1535 38.1757 31.1913 38.1589 31.2194 38.1321L31.2197 38.1318C31.2201 38.1314 31.2211 38.1309 31.2209 38.1306C31.2211 38.1304 31.2214 38.1304 31.2216 38.1299L31.2218 38.1297L31.2221 38.1294L31.2223 38.1292C31.2223 38.1292 31.2226 38.1292 31.2226 38.1289L31.2228 38.1287C31.2231 38.1287 31.2231 38.1284 31.2231 38.1284C31.2238 38.1282 31.2235 38.1282 31.2235 38.128L31.2238 38.1277L31.224 38.1275L31.2243 38.1272C31.2519 38.0987 31.2691 38.06 31.2692 38.0172V38.0148C31.2685 37.9846 31.2592 37.9552 31.2425 37.93C31.2259 37.9047 31.2024 37.8847 31.1749 37.8721Z" fill="#F4B21B"/>
<path d="M37.7677 37.8722L37.7672 37.8719L37.7665 37.8717H37.7662L37.766 37.8714L37.7657 37.8712C37.7655 37.8712 37.7655 37.8712 37.7655 37.8709H37.7652L37.765 37.8707L37.7648 37.8705C37.7648 37.8705 37.7645 37.8705 37.7645 37.8702H37.7643L37.764 37.87C37.7638 37.8702 37.7638 37.8697 37.7635 37.8697C37.7638 37.8695 37.7633 37.8695 37.7631 37.8695L37.7628 37.8692H37.7626L37.7623 37.869L37.7621 37.8687L37.7616 37.8685C37.7614 37.8687 37.7614 37.8683 37.7609 37.8683L37.7606 37.868C37.7609 37.8678 37.7604 37.8678 37.7601 37.8678C37.7601 37.8678 37.7599 37.8678 37.7599 37.8675C37.7597 37.8673 37.7592 37.8673 37.7589 37.8673L37.7578 37.867L37.7573 37.8668L37.7569 37.8666L37.7564 37.8663L37.7559 37.8661C37.7552 37.8661 37.7552 37.8661 37.7554 37.8658C37.7552 37.8658 37.7552 37.8656 37.7552 37.8656L37.7547 37.8653H37.7544C37.7396 37.86 37.724 37.857 37.7082 37.8562H37.7059L37.7054 37.856H37.7028H37.7011H37.702H37.7018C37.2947 37.856 36.9616 37.5245 36.959 37.1182V32.5463H37.5951C37.6848 32.5442 37.7576 32.4763 37.7576 32.3871C37.7576 32.3203 37.7168 32.2633 37.6588 32.2395L34.614 30.1382C34.5874 30.1199 34.5558 30.11 34.5234 30.11C34.4911 30.11 34.4595 30.1199 34.4328 30.1382L31.3645 32.2557C31.3367 32.2751 31.3157 32.3029 31.3047 32.335C31.2937 32.3671 31.2932 32.4018 31.3033 32.4342C31.3134 32.4666 31.3336 32.495 31.3608 32.5151C31.3881 32.5353 31.4211 32.5463 31.455 32.5464H32.0878L32.0883 37.1206C32.0915 37.6934 32.5518 38.1611 33.137 38.1755C33.1433 38.1762 33.1497 38.1765 33.1562 38.1765H37.704C37.7458 38.1757 37.7837 38.159 37.8118 38.1321L37.812 38.1319C37.8125 38.1314 37.8132 38.1309 37.8132 38.1306C37.8135 38.1304 37.8137 38.1304 37.814 38.1299L37.8142 38.1297L37.8145 38.1294L37.8147 38.1292L37.8149 38.1289L37.8152 38.1287L37.8154 38.1285C37.8162 38.1282 37.8157 38.1282 37.8159 38.128L37.8162 38.1277L37.8164 38.1275L37.8166 38.1272C37.8442 38.0987 37.8614 38.06 37.8616 38.0173V38.0148C37.861 37.9846 37.8518 37.9552 37.8352 37.9299C37.8186 37.9047 37.7952 37.8847 37.7677 37.8722Z" fill="#F2D864"/>
</svg>
