<svg width="56" height="56" viewBox="0 0 56 56" fill="none" xmlns="http://www.w3.org/2000/svg">
<rect y="0.000244141" width="56" height="56" rx="16" fill="#1E2235"/>
<path fill-rule="evenodd" clip-rule="evenodd" d="M28.0014 43.5558V37.5266C34.3832 37.5266 39.3371 31.1979 36.8863 24.4809C36.4362 23.247 35.7218 22.1263 34.7931 21.1975C33.8644 20.2687 32.7438 19.5541 31.5099 19.1039C24.793 16.6712 18.4642 21.6071 18.4642 27.9889H12.4525C12.4525 17.8177 22.2898 9.88441 32.9553 13.2157C37.6096 14.6798 41.3291 18.3812 42.7751 23.0362C46.107 33.7185 38.1913 43.5558 28.0014 43.5558Z" fill="#0080FF"/>
<path fill-rule="evenodd" clip-rule="evenodd" d="M22.0252 37.5441H28.0189V31.5505H22.0259L22.0252 37.5441ZM17.4064 42.163H22.0246V37.5448H17.4064V42.163ZM13.5453 37.5448H17.4064V33.683H13.5453V37.5448Z" fill="#0080FF"/>
</svg>
