<svg width="56" height="56" viewBox="0 0 56 56" fill="none" xmlns="http://www.w3.org/2000/svg">
<rect y="0.000244141" width="56" height="56" rx="16" fill="#1E2235"/>
<path d="M14.7923 25.708C14.7317 25.708 14.7166 25.6777 14.7469 25.6323L15.065 25.2233C15.0953 25.1779 15.171 25.1476 15.2316 25.1476H20.6393C20.6999 25.1476 20.715 25.193 20.6847 25.2384L20.4272 25.6323C20.3969 25.6777 20.3212 25.7232 20.2757 25.7232L14.7923 25.708ZM12.505 27.1016C12.4445 27.1016 12.4293 27.0713 12.4596 27.0259L12.7777 26.6169C12.808 26.5714 12.8837 26.5411 12.9443 26.5411H19.8516C19.9122 26.5411 19.9425 26.5866 19.9273 26.632L19.8061 26.9956C19.791 27.0561 19.7304 27.0864 19.6698 27.0864L12.505 27.1016ZM16.1707 28.4952C16.1102 28.4952 16.095 28.4497 16.1253 28.4043L16.3374 28.0256C16.3677 27.9801 16.4283 27.9347 16.4888 27.9347H19.5183C19.5789 27.9347 19.6092 27.9801 19.6092 28.0407L19.5789 28.4043C19.5789 28.4649 19.5183 28.5103 19.4729 28.5103L16.1707 28.4952ZM31.8939 25.4354C30.9396 25.6777 30.2882 25.8595 29.3491 26.1019C29.1219 26.1624 29.1067 26.1776 28.9098 25.9504C28.6826 25.6929 28.516 25.5263 28.1979 25.3748C27.2436 24.9052 26.3196 25.0415 25.4562 25.602C24.4261 26.2685 23.896 27.2531 23.9111 28.48C23.9263 29.6918 24.7594 30.6916 25.956 30.8582C26.9861 30.9945 27.8495 30.631 28.5311 29.8584C28.6674 29.6918 28.7886 29.51 28.9401 29.298H26.0166C25.6985 29.298 25.6228 29.1011 25.7288 28.8436C25.9257 28.374 26.2893 27.5863 26.5014 27.1925C26.5468 27.1016 26.6528 26.9501 26.88 26.9501H32.3937C32.3634 27.3591 32.3634 27.7681 32.3028 28.1771C32.1362 29.2677 31.7272 30.2674 31.0608 31.146C29.9701 32.585 28.5463 33.4787 26.7437 33.7211C25.2593 33.918 23.8808 33.6302 22.669 32.7213C21.5481 31.8731 20.9119 30.7521 20.7453 29.3586C20.5484 27.7075 21.0331 26.223 22.0328 24.9203C23.1083 23.5116 24.5322 22.6179 26.2741 22.2998C27.698 22.0423 29.0613 22.2089 30.2882 23.0421C31.091 23.5722 31.6667 24.2993 32.0453 25.1779C32.1362 25.3142 32.0756 25.3899 31.8939 25.4354Z" fill="#00ACD7"/>
<path d="M36.9077 33.8119C35.5292 33.7816 34.272 33.3878 33.2117 32.479C32.318 31.7064 31.7575 30.7218 31.5757 29.5555C31.3031 27.8438 31.7727 26.3291 32.8027 24.9809C33.9084 23.5268 35.2414 22.7694 37.044 22.4513C38.589 22.1786 40.0432 22.3301 41.361 23.2238C42.5577 24.0418 43.2999 25.1476 43.4968 26.6017C43.7543 28.6466 43.1636 30.3129 41.7549 31.7367C40.7551 32.7516 39.5282 33.3878 38.1195 33.6756C37.7105 33.7513 37.3015 33.7665 36.9077 33.8119ZM40.5128 27.6923C40.4976 27.4954 40.4976 27.3439 40.4673 27.1925C40.1947 25.6929 38.8162 24.8446 37.3772 25.1779C35.9685 25.496 35.0597 26.3897 34.7264 27.8135C34.4538 28.995 35.0294 30.1917 36.12 30.6764C36.9531 31.0399 37.7862 30.9945 38.589 30.5855C39.7857 29.9645 40.437 28.995 40.5128 27.6923Z" fill="#00ACD7"/>
</svg>
