<svg width="56" height="56" viewBox="0 0 56 56" fill="none" xmlns="http://www.w3.org/2000/svg">
<rect y="0.000244141" width="56" height="56" rx="16" fill="#1E2235"/>
<path d="M42.9749 19.5429C42.986 19.5842 42.9917 19.6267 42.9918 19.6694V26.3067C42.9918 26.3918 42.9693 26.4755 42.9266 26.5492C42.8839 26.623 42.8225 26.6841 42.7486 26.7265L37.1779 29.9338V36.291C37.1779 36.464 37.0859 36.6237 36.9359 36.7108L25.3073 43.405C25.2807 43.4201 25.2517 43.4298 25.2226 43.4401C25.2118 43.4437 25.2015 43.4504 25.19 43.4534C25.1087 43.4748 25.0232 43.4748 24.942 43.4534C24.9286 43.4498 24.9165 43.4425 24.9038 43.4377C24.8772 43.428 24.8494 43.4195 24.824 43.405L13.1979 36.7108C13.124 36.6684 13.0626 36.6073 13.0199 36.5336C12.9773 36.4598 12.9547 36.3762 12.9547 36.291V16.3792C12.9547 16.3356 12.9607 16.2933 12.9716 16.2521C12.9752 16.2382 12.9837 16.2255 12.9886 16.2116C12.9976 16.1862 13.0061 16.1602 13.0194 16.1366C13.0285 16.1208 13.0418 16.1081 13.0527 16.0936C13.0666 16.0743 13.0793 16.0543 13.0956 16.0374C13.1095 16.0235 13.1277 16.0132 13.1434 16.0011C13.161 15.9866 13.1767 15.9708 13.1967 15.9593H13.1973L19.0106 12.6123C19.0842 12.5699 19.1677 12.5476 19.2526 12.5476C19.3375 12.5476 19.421 12.5699 19.4946 12.6123L25.3079 15.9593H25.3091C25.3285 15.9714 25.3448 15.9866 25.3624 16.0005C25.3781 16.0126 25.3957 16.0235 25.4096 16.0368C25.4265 16.0543 25.4386 16.0743 25.4531 16.0936C25.4634 16.1081 25.4773 16.1208 25.4858 16.1366C25.4997 16.1608 25.5076 16.1862 25.5172 16.2116C25.5221 16.2255 25.5306 16.2382 25.5342 16.2527C25.5453 16.2939 25.551 16.3365 25.5511 16.3792V28.8159L30.3954 26.0266V19.6688C30.3954 19.6264 30.4014 19.5835 30.4123 19.5429C30.4166 19.5284 30.4244 19.5157 30.4293 19.5018C30.4389 19.4764 30.4474 19.4504 30.4607 19.4268C30.4698 19.4111 30.4831 19.3984 30.4934 19.3838C30.5079 19.3645 30.52 19.3445 30.5369 19.3276C30.5509 19.3137 30.5684 19.3034 30.5841 19.2913C30.6023 19.2768 30.618 19.261 30.6374 19.2495H30.638L36.4519 15.9025C36.5255 15.8601 36.609 15.8377 36.6939 15.8377C36.7788 15.8377 36.8623 15.8601 36.9359 15.9025L42.7492 19.2495C42.7698 19.2616 42.7855 19.2768 42.8037 19.2907C42.8188 19.3028 42.8364 19.3137 42.8503 19.327C42.8672 19.3445 42.8793 19.3645 42.8938 19.3838C42.9047 19.3984 42.918 19.4111 42.9265 19.4268C42.9404 19.4504 42.9483 19.4764 42.9579 19.5018C42.9634 19.5157 42.9713 19.5284 42.9749 19.5429ZM42.0227 26.0266V20.5072L39.9884 21.6783L37.1779 23.2965V28.8159L42.0233 26.0266H42.0227ZM36.2094 36.0109V30.4879L33.4448 32.0668L25.5505 36.5723V42.1473L36.2094 36.0109ZM13.9238 17.217V36.0109L24.5814 42.1467V36.5729L19.0136 33.4218L19.0118 33.4206L19.0094 33.4194C18.9907 33.4085 18.9749 33.3928 18.9574 33.3795C18.9423 33.3674 18.9247 33.3577 18.9114 33.3444L18.9102 33.3426C18.8945 33.3275 18.8836 33.3087 18.8703 33.2918C18.8582 33.2754 18.8437 33.2615 18.834 33.2446L18.8334 33.2428C18.8225 33.2246 18.8158 33.2028 18.808 33.1823C18.8001 33.1641 18.7898 33.1472 18.785 33.1278V33.1272C18.7789 33.1042 18.7777 33.08 18.7753 33.0565C18.7729 33.0383 18.768 33.0202 18.768 33.002V20.0063L15.9582 18.3875L13.9238 17.2176V17.217ZM19.2532 13.591L14.4095 16.3792L19.252 19.1673L24.0951 16.3785L19.252 13.591H19.2532ZM21.7721 30.9912L24.582 29.3736V17.217L22.5476 18.3881L19.7371 20.0063V32.163L21.7721 30.9912ZM36.6939 16.8812L31.8508 19.6694L36.6939 22.4575L41.5364 19.6688L36.6939 16.8812ZM36.2094 23.2965L33.3989 21.6783L31.3645 20.5072V26.0266L34.1744 27.6442L36.2094 28.8159V23.2965ZM25.0654 35.7345L32.169 31.679L35.72 29.6525L30.8805 26.8662L25.3085 30.0742L20.2302 32.9978L25.0654 35.7345Z" fill="#FF2D20"/>
</svg>
