<svg width="56" height="56" viewBox="0 0 56 56" fill="none" xmlns="http://www.w3.org/2000/svg">
<rect y="0.000244141" width="56" height="56" rx="16" fill="#1E2235"/>
<path d="M42.3366 35.1783C40.6763 36.0437 32.0756 39.5801 30.2445 40.5347C28.4134 41.4894 27.3962 41.4802 25.9497 40.7887C24.5033 40.0972 15.3505 36.4001 13.7018 35.612C12.8778 35.2182 12.4444 34.8857 12.4444 34.5717V31.427C12.4444 31.427 24.3602 28.833 26.2839 28.1429C28.2074 27.4527 28.8749 27.4278 30.5119 28.0274C32.1491 28.6273 41.9377 30.3933 43.5556 30.9859L43.5548 34.0861C43.5551 34.3969 43.1817 34.7379 42.3366 35.1783Z" fill="#912626"/>
<path d="M42.336 32.0523C40.6758 32.9174 32.0753 36.4538 30.2443 37.4083C28.4133 38.3631 27.3961 38.3538 25.9497 37.6623C24.5032 36.9713 15.3508 33.2736 13.7021 32.4859C12.0535 31.6978 12.019 31.1555 13.6385 30.5213C15.2579 29.887 24.3601 26.3159 26.284 25.6257C28.2076 24.9358 28.8749 24.9106 30.5119 25.5105C32.149 26.1101 40.6982 29.513 42.3159 30.1055C43.9341 30.6986 43.9962 31.1871 42.336 32.0523Z" fill="#C6302B"/>
<path d="M42.3366 30.0901C40.6763 30.9557 32.0756 34.4919 30.2445 35.4468C28.4134 36.4012 27.3962 36.392 25.9497 35.7005C24.5032 35.0093 15.3505 31.3119 13.7018 30.5237C12.8778 30.13 12.4444 29.798 12.4444 29.4838V26.3388C12.4444 26.3388 24.3602 23.7449 26.2839 23.0548C28.2074 22.3646 28.8749 22.3396 30.5119 22.9393C32.1492 23.5391 41.9378 25.3047 43.5556 25.8974L43.5548 28.998C43.5551 29.3087 43.1817 29.6497 42.3366 30.0901Z" fill="#912626"/>
<path d="M42.336 26.9641C40.6758 27.8294 32.0753 31.3656 30.2443 32.3204C28.4133 33.2749 27.3961 33.2655 25.9497 32.574C24.5032 31.883 15.3508 28.1854 13.7021 27.3977C12.0535 26.6098 12.019 26.0673 13.6385 25.433C15.2579 24.7989 24.3602 21.2276 26.284 20.5376C28.2076 19.8475 28.8749 19.8225 30.5119 20.4222C32.149 21.0219 40.6982 24.4245 42.3159 25.0172C43.9341 25.6103 43.9962 26.0988 42.336 26.9641Z" fill="#C6302B"/>
<path d="M42.3366 24.8133C40.6763 25.6786 32.0756 29.215 30.2445 30.17C28.4134 31.1245 27.3962 31.1151 25.9497 30.4236C24.5032 29.7325 15.3505 26.0349 13.7018 25.2471C12.8778 24.853 12.4444 24.5209 12.4444 24.2071V21.062C12.4444 21.062 24.3602 18.4682 26.2839 17.7782C28.2074 17.0879 28.8749 17.0631 30.5119 17.6627C32.1492 18.2624 41.9378 20.0281 43.5556 20.6208L43.5548 23.7212C43.5551 24.0317 43.1817 24.3728 42.3366 24.8133Z" fill="#912626"/>
<path d="M42.336 21.6872C40.6758 22.5525 32.0753 26.089 30.2442 27.0434C28.4133 27.9979 27.3961 27.9886 25.9497 27.2974C24.5033 26.6059 15.3508 22.9086 13.7023 22.1207C12.0535 21.333 12.0191 20.7903 13.6384 20.1561C15.2579 19.522 24.3602 15.9511 26.284 15.2608C28.2076 14.5707 28.8749 14.5459 30.5119 15.1456C32.149 15.7454 40.6982 19.148 42.3158 19.7407C43.9341 20.3333 43.9962 20.8219 42.336 21.6872Z" fill="#C6302B"/>
<path d="M31.8018 18.628L29.1269 18.9057L28.5282 20.3465L27.5611 18.7387L24.4724 18.4611L26.7771 17.63L26.0856 16.3542L28.2433 17.1981L30.2775 16.5321L29.7277 17.8513L31.8018 18.628ZM28.3685 25.618L23.3765 23.5475L30.5296 22.4495L28.3685 25.618ZM21.4475 19.4288C23.559 19.4288 25.2707 20.0924 25.2707 20.9107C25.2707 21.7294 23.559 22.3928 21.4475 22.3928C19.3359 22.3928 17.6242 21.7292 17.6242 20.9107C17.6242 20.0924 19.3359 19.4288 21.4475 19.4288Z" fill="#1E2235"/>
<path d="M34.9629 19.0218L39.1965 20.6948L34.9666 22.3662L34.9629 19.0217" fill="#621B1C"/>
<path d="M30.2793 20.8746L34.9629 19.0219L34.9666 22.3662L34.5073 22.5458L30.2793 20.8746Z" fill="#9A2928"/>
</svg>
